PathFileType	4	(X/Y/Z)	62_1_33_p1_0-323_filt_butterworth.trc
DataRate	CameraRate	NumFrames	NumMarkers	Units	OrigDataRate	OrigDataStartFrame	OrigNumFrames
48.0	48.0	6	27	m	48.0	161	323
Frame#	Time	RHip			RKnee			RAnkle			RBigToe			RSmallToe			RHeel			LHip			LKnee			LAnkle			LBigToe			LSmallToe			LHeel			Neck			Head			Nose			RShoulder			RElbow			RWrist			RThumb			RIndex			RPinky			LShoulder			LElbow			LWrist			LThumb			LIndex			LPinky			
		X1	Y1	Z1	X2	Y2	Z2	X3	Y3	Z3	X4	Y4	Z4	X5	Y5	Z5	X6	Y6	Z6	X7	Y7	Z7	X8	Y8	Z8	X9	Y9	Z9	X10	Y10	Z10	X11	Y11	Z11	X12	Y12	Z12	X13	Y13	Z13	X14	Y14	Z14	X15	Y15	Z15	X16	Y16	Z16	X17	Y17	Z17	X18	Y18	Z18	X19	Y19	Z19	X20	Y20	Z20	X21	Y21	Z21	X22	Y22	Z22	X23	Y23	Z23	X24	Y24	Z24	X25	Y25	Z25	X26	Y26	Z26	X27	Y27	Z27	
161	3.3541666666666665	0.31331359576492634	0.45060102109191097	0.239118599380704	0.31911534114159834	0.752836480827388	0.5011314918572176	0.32669220740594784	1.069519316137612	0.7841680800166987	0.28657986101326616	0.9412990300445411	0.944795820191908	0.3562117596320068	0.9436942459029231	0.9253528347760883	0.3141192532951339	1.1272198365148198	0.8190694574032805	0.1176576876236586	0.5222445213496504	0.2092493131192885	0.13728523408169002	0.7931747222076584	0.47038177758068556	0.15147594780204887	1.0394014541961576	0.7806414764119693	0.11456395276789029	0.9017371375687939	0.9232441131284421	0.07968924934722332	0.9612150469375473	0.8873113766000986	0.1853250251169627	1.113655737714532	0.79338079749533	0.22293727386073536	0.10850283344123973	-0.1853026336748848	0.17128128971763862	-0.10446079908175704	-0.341703466821869	0.15925550007400624	-0.029449728155649824	-0.21122626123351712	0.35445059422287445	0.11961735225125707	-0.1222675731223329	0.3384946545019408	0.14635268369495363	0.12644903188607345	0.21903012356019091	0.03529793073471435	-0.01139549259113301	0.16044112721343767	0.027560858104981576	-0.11958861746738181	0.1532906636553487	0.006244669321317866	-0.10545953673728493	0.14915857461771215	3.8409694861968845e-05	-0.04843967956117602	0.07182139264414772	0.21408594104762058	-0.17083474640805663	0.022106758334775684	0.36097684428177973	0.05305516563715607	0.0132781859474604	0.4666931766299308	0.2878879919702932	0.05491824001106251	0.5177082352726616	0.3738438564112583	0.019739029157948534	0.5210603133883269	0.38876199405664663	-0.0015668861419765776	0.5096495761948823	0.3834969269265896
162	3.375	0.31332659963776294	0.45043574155391625	0.23913664545358973	0.3190990723831643	0.7528176582526069	0.5010501027960468	0.3259165020742232	1.069621824450282	0.7841943623251442	0.2857524837535417	0.9392595324182815	0.9434648388778074	0.3562258116727257	0.9402509105464492	0.9253108939722317	0.31271002917107044	1.1205397647680906	0.8163796345316213	0.11720992688202778	0.5213987790911058	0.2094760359663707	0.13745275737542306	0.7930114108420716	0.4701719622733356	0.15143951325025665	1.0393636954225305	0.780670816348733	0.11446335348161145	0.9012546031936336	0.9228376106698777	0.07967654641505609	0.9612673576552501	0.8872474105555288	0.1851729599671393	1.113367552403968	0.7932520675564622	0.22292881890353283	0.1083573310837675	-0.1855314613973658	0.17116498900266686	-0.10516701188428854	-0.3424937189186684	0.1600105303701792	-0.02720454273248862	-0.21412332380412824	0.35443807367634744	0.11957025755794548	-0.12250143060406865	0.339021870218674	0.1465686218606079	0.12630167534450418	0.21802595788734191	0.03550546492147108	-0.011587103107530035	0.16010073807099026	0.026810410462666485	-0.119343936939897	0.15332800174823463	0.006407399560213882	-0.10560627804950075	0.14810815550214385	0.002905720593000066	-0.04860064623257363	0.07170801869842727	0.2132599493509149	-0.17148039535455345	0.02210478158669449	0.3635234692623518	0.05487335866467638	0.01334287055402785	0.46676500526620773	0.28787521073006594	0.055435164776574924	0.5140999840332138	0.374502213254752	0.021977866243503293	0.5260418583356358	0.38840154718683445	-0.0010921897834081978	0.5095752179294313	0.38365564853829465
163	3.395833333333333	0.3132578177440273	0.4500318558749393	0.23883720498641478	0.31911672546354364	0.7528527025661191	0.5009436981655432	0.324531857145505	1.069624579136055	0.7845411874860273	0.28534822756783673	0.9382495371336178	0.9430203615436503	0.3562074085095736	0.9393152573443868	0.9254910126446216	0.3112128203629704	1.1149585299098845	0.8144190615224071	0.11672449136018426	0.5210241764628702	0.20922433842058577	0.13746947136167695	0.7927583754101069	0.4701901323368614	0.15140821290027187	1.0393624828966577	0.7807717451071499	0.11445346148168377	0.9010886246688901	0.9226394023145059	0.07969105404847743	0.9612713410403806	0.8871661137416487	0.18520538934619057	1.1136726574408915	0.7935092533957648	0.22286507817411166	0.10759874843619138	-0.18623621571940432	0.17097831404798602	-0.10608984236530236	-0.34361202318108836	0.16151664821058437	-0.026704542873034455	-0.21499013780311083	0.35440882207057467	0.11964161034481074	-0.12242973828936043	0.33967978171302143	0.1468874803675988	0.12609304782536293	0.21607906170825972	0.03589698644662819	-0.01185405340052495	0.15975182741370586	0.025979297169413024	-0.11914332697519624	0.1534645168352363	0.006252950118765449	-0.10582051554661218	0.14741860381982475	0.0038051709783394148	-0.047742329757103685	0.07160112866638328	0.21294913014366523	-0.17153986153471112	0.02214538304942403	0.36690977961936855	0.05321568528520802	0.013379563277979643	0.4668757403589624	0.28785657103659884	0.05558299701301232	0.5127433929885311	0.3750607102904931	0.0221303792463907	0.5257960573908295	0.38874602635182764	-0.001315454980528622	0.5096529486859117	0.3836613419946504
164	3.4166666666666665	0.3130790884164597	0.4493342975710479	0.2382365987914281	0.3192618700684211	0.7530908172211898	0.5008807608795588	0.3239143197423878	1.0694616082407644	0.7846174071802354	0.28538620232544615	0.938246056547313	0.9431720229196274	0.3561720977375388	0.9395930898585858	0.9255466743683173	0.31040586345726706	1.1151269213959363	0.8155806137100611	0.11651813256430302	0.5211902170380145	0.20902834321449865	0.13742306399876764	0.7926765448411712	0.47021629558165423	0.1513892906963118	1.0394045234757605	0.7808681993913809	0.11444875197730807	0.9010099931217983	0.9225407161573658	0.0797966816754131	0.9612418205137866	0.8870191518955197	0.1853812312574797	1.1141159597798023	0.793789628551538	0.22268040376226175	0.10645663257809823	-0.18716785936956698	0.1712276361809309	-0.1062331815528429	-0.34427849755430134	0.16241355667449234	-0.027366506494458997	-0.21556028147021297	0.3543783295035733	0.11960624228816807	-0.12233822482420759	0.34046379429299956	0.14708979663845478	0.12517724101137648	0.21418842299776755	0.03681876867125281	-0.01256270453039312	0.15845527239914814	0.024086162414552026	-0.11810018070804032	0.1527451254603731	0.0054526278416037	-0.10532978677796812	0.14592865392147972	0.005024054796292137	-0.0468186837846046	0.0715802922563372	0.2129828784195321	-0.17143712197768973	0.0222557578285817	0.3685380004479165	0.05109466442919415	0.013377506326234377	0.46684879104991084	0.2878702577240984	0.05621329006226166	0.5083517519653523	0.3766628458744168	0.020922184968859864	0.5185472002699391	0.3908408117101427	-0.001457660882459582	0.5096340860538517	0.38368284879442555
165	3.4375	0.3129785165232871	0.4487427675139195	0.2380587150903139	0.31946590140787234	0.7534283154103304	0.5009629447162599	0.3239654026853274	1.0694411986435666	0.7844398003231403	0.2855811274107664	0.9387035860921065	0.9435474827954202	0.3561148949776093	0.9396635221512049	0.9254419833012225	0.310509584125595	1.1191159585891544	0.818159678250671	0.11653591960796565	0.5212849515505592	0.20891624400932446	0.13736847758721338	0.7924675176900864	0.47059433094844694	0.15138028403233889	1.039440120428253	0.7805812840621497	0.11449041731698086	0.9012914429983974	0.9226291080764728	0.07995946321568358	0.9611931198945152	0.8868617503110182	0.18510934365721649	1.1138969080441168	0.7934858811892914	0.2224515720048633	0.10564291453890842	-0.18776413483918225	0.17243160884267714	-0.10527821509272102	-0.3438886062425447	0.1626632473527725	-0.028252849438601724	-0.21672314103720955	0.35434801043331277	0.11945534995878612	-0.12225638485604277	0.34088526147815185	0.1471159451065076	0.12389188939206337	0.21334255673444613	0.03739315607133302	-0.012750446398629486	0.1551500010934167	0.021052013431231444	-0.11497008396584735	0.15006065023884374	0.0034515246603137825	-0.1033134445168878	0.14315929050221782	0.006456227178225953	-0.04640462278168402	0.07158598887074287	0.21301541065408358	-0.17137860135370087	0.022428150295664136	0.3686528037769843	0.05039844731411659	0.01334884541666968	0.46665061348751363	0.28792723022172434	0.057412290397778426	0.5000490464955609	0.3794012083872592	0.019355613456357453	0.5078201145400334	0.39399001072859474	-0.0014676703369924425	0.5094324880558828	0.3837842142700727
166	3.458333333333333	0.3131334255109018	0.44850289240417407	0.2385242262579576	0.3190449319072671	0.7525964772940237	0.5013959564756345	0.32407509349407004	1.0698079398144331	0.784783275446987	0.2853103253786442	0.9379897410984246	0.9438317388734835	0.35606171584629726	0.9394726078562261	0.9250502089741525	0.31091751517613925	1.1219779604216622	0.8190563075400952	0.11666681290713743	0.5215150470180375	0.20904088444029215	0.13731102482070762	0.7920355491748987	0.4714189731946984	0.15144556777196075	1.039216213848314	0.7794143719252599	0.1146877449727641	0.9024113438775331	0.9232950589872941	0.07976707902906073	0.961455593542516	0.8870976982016952	0.18357100079961722	1.112175732515497	0.7920299698842064	0.22236609499576296	0.10529051506882793	-0.18816635178758245	0.17405595566823645	-0.10458826078532316	-0.343133562257099	0.16351648899845497	-0.02947721836620117	-0.2177132415660931	0.3543426440541433	0.1192985829617425	-0.12217629511505479	0.3411378160223821	0.14704122893493315	0.12318303616091565	0.21330671004007012	0.037024609495861595	-0.010509702954547713	0.15061019060716468	0.019475561701172966	-0.10995511231493534	0.14627315136872165	0.0011290462482546118	-0.10004846948783377	0.14004758923154553	0.006029302023449871	-0.0453996162662818	0.07159356818138274	0.21300031077841397	-0.17137030740470557	0.022195840775928885	0.3684222362280932	0.05055420695862411	0.01330472482091817	0.46639107981865796	0.28797961393652616	0.05824507557476516	0.4943166463862605	0.38122521264945497	0.01839735392525554	0.5006120940611805	0.3961289430071203	-0.0014816707014609631	0.509148278752127	0.3839111369852552
